<svg width="90" height="71" viewBox="0 0 90 71" fill="none" xmlns="http://www.w3.org/2000/svg">
<g filter="url(#filter0_d_1163_5593)">
<path d="M56.512 26.9918L56.5117 63L42.2587 56.2485L56.512 26.9918Z" fill="url(#paint0_linear_1163_5593)"/>
<path d="M14.6555 26.9917L55.0114 26.9918L43.7591 49.5113L14.6555 26.9917Z" fill="url(#paint1_linear_1163_5593)"/>
<path d="M32.5065 25.5058L55.0116 2.16126e-05L55.0116 25.5058L32.5065 25.5058Z" fill="url(#paint2_linear_1163_5593)"/>
<path d="M82.0178 0L56.512 25.5061L56.512 0.000259378L82.0178 0Z" fill="url(#paint3_linear_1163_5593)"/>
<path d="M85.0185 4.50105L76.0164 8.25189L82.0178 1.50032L85.0185 4.50105Z" fill="url(#paint4_linear_1163_5593)"/>
<path d="M14.5024 9.00207H23.5044L35.5072 20.2546L31.0062 25.5058H14.5024V9.00207Z" fill="url(#paint5_linear_1163_5593)"/>
<path d="M13.0021 10.5024V16.5038L4 16.5038L13.0021 10.5024Z" fill="url(#paint6_linear_1163_5593)"/>
</g>
<defs>
<filter id="filter0_d_1163_5593" x="0" y="0" width="89.0186" height="71" filterUnits="userSpaceOnUse" color-interpolation-filters="sRGB">
<feFlood flood-opacity="0" result="BackgroundImageFix"/>
<feColorMatrix in="SourceAlpha" type="matrix" values="0 0 0 0 0 0 0 0 0 0 0 0 0 0 0 0 0 0 127 0" result="hardAlpha"/>
<feOffset dy="4"/>
<feGaussianBlur stdDeviation="2"/>
<feComposite in2="hardAlpha" operator="out"/>
<feColorMatrix type="matrix" values="0 0 0 0 0 0 0 0 0 0 0 0 0 0 0 0 0 0 0.25 0"/>
<feBlend mode="normal" in2="BackgroundImageFix" result="effect1_dropShadow_1163_5593"/>
<feBlend mode="normal" in="SourceGraphic" in2="effect1_dropShadow_1163_5593" result="shape"/>
</filter>
<linearGradient id="paint0_linear_1163_5593" x1="85.0185" y1="-2.22904e-06" x2="13.7522" y2="39.7591" gradientUnits="userSpaceOnUse">
<stop stop-color="#8B6D05"/>
<stop offset="0.67381" stop-color="#FFEB39"/>
<stop offset="0.930512" stop-color="#8C6D02"/>
</linearGradient>
<linearGradient id="paint1_linear_1163_5593" x1="85.0185" y1="-2.22904e-06" x2="13.7522" y2="39.7591" gradientUnits="userSpaceOnUse">
<stop stop-color="#8B6D05"/>
<stop offset="0.67381" stop-color="#FFEB39"/>
<stop offset="0.930512" stop-color="#8C6D02"/>
</linearGradient>
<linearGradient id="paint2_linear_1163_5593" x1="85.0185" y1="-2.22904e-06" x2="13.7522" y2="39.7591" gradientUnits="userSpaceOnUse">
<stop stop-color="#8B6D05"/>
<stop offset="0.67381" stop-color="#FFEB39"/>
<stop offset="0.930512" stop-color="#8C6D02"/>
</linearGradient>
<linearGradient id="paint3_linear_1163_5593" x1="85.0185" y1="-2.22904e-06" x2="13.7522" y2="39.7591" gradientUnits="userSpaceOnUse">
<stop stop-color="#8B6D05"/>
<stop offset="0.67381" stop-color="#FFEB39"/>
<stop offset="0.930512" stop-color="#8C6D02"/>
</linearGradient>
<linearGradient id="paint4_linear_1163_5593" x1="85.0185" y1="-2.22904e-06" x2="13.7522" y2="39.7591" gradientUnits="userSpaceOnUse">
<stop stop-color="#8B6D05"/>
<stop offset="0.67381" stop-color="#FFEB39"/>
<stop offset="0.930512" stop-color="#8C6D02"/>
</linearGradient>
<linearGradient id="paint5_linear_1163_5593" x1="85.0185" y1="-2.22904e-06" x2="13.7522" y2="39.7591" gradientUnits="userSpaceOnUse">
<stop stop-color="#8B6D05"/>
<stop offset="0.67381" stop-color="#FFEB39"/>
<stop offset="0.930512" stop-color="#8C6D02"/>
</linearGradient>
<linearGradient id="paint6_linear_1163_5593" x1="85.0185" y1="-2.22904e-06" x2="13.7522" y2="39.7591" gradientUnits="userSpaceOnUse">
<stop stop-color="#8B6D05"/>
<stop offset="0.67381" stop-color="#FFEB39"/>
<stop offset="0.930512" stop-color="#8C6D02"/>
</linearGradient>
</defs>
</svg>
